<svg width="643" height="787" viewBox="0 0 643 787" fill="none" xmlns="http://www.w3.org/2000/svg">
<path d="M379.941 715H229.062V301.914L230.527 234.043L232.969 159.824C207.904 184.889 190.488 201.328 180.723 209.141L98.6914 275.059L25.9375 184.238L255.918 1.13281H379.941V715Z" fill="#ED105B"/>
<path d="M379.941 715V716H380.941V715H379.941ZM229.062 715H228.062V716H229.062V715ZM229.062 301.914L228.063 301.892L228.062 301.903V301.914H229.062ZM230.527 234.043L229.528 234.01L229.528 234.021L230.527 234.043ZM232.969 159.824L233.968 159.857L234.051 157.327L232.262 159.117L232.969 159.824ZM180.723 209.141L180.098 208.36L180.096 208.361L180.723 209.141ZM98.6914 275.059L97.9109 275.684L98.5371 276.465L99.3178 275.838L98.6914 275.059ZM25.9375 184.238L25.3146 183.456L24.53 184.081L25.157 184.863L25.9375 184.238ZM255.918 1.13281V0.132812H255.568L255.295 0.350487L255.918 1.13281ZM379.941 1.13281H380.941V0.132812H379.941V1.13281ZM379.941 714H229.062V716H379.941V714ZM230.062 715V301.914H228.062V715H230.062ZM230.062 301.936L231.527 234.065L229.528 234.021L228.063 301.892L230.062 301.936ZM231.527 234.076L233.968 159.857L231.969 159.791L229.528 234.01L231.527 234.076ZM232.262 159.117C207.192 184.187 189.814 200.587 180.098 208.36L181.347 209.921C191.163 202.069 208.616 185.592 233.676 160.531L232.262 159.117ZM180.096 208.361L98.065 274.279L99.3178 275.838L181.349 209.92L180.096 208.361ZM99.4719 274.433L26.718 183.613L25.157 184.863L97.9109 275.684L99.4719 274.433ZM26.5604 185.021L256.541 1.91514L255.295 0.350487L25.3146 183.456L26.5604 185.021ZM255.918 2.13281H379.941V0.132812H255.918V2.13281ZM378.941 1.13281V715H380.941V1.13281H378.941Z" fill="#BF2020"/>
<path d="M630.893 716H281.576V642.514L407.016 515.707C444.158 477.654 468.425 451.335 479.818 436.752C491.212 421.941 499.415 408.269 504.428 395.736C509.441 383.204 511.947 370.215 511.947 356.771C511.947 336.719 506.365 321.794 495.199 311.996C484.262 302.198 469.564 297.299 451.107 297.299C431.739 297.299 412.94 301.742 394.711 310.629C376.482 319.516 357.455 332.162 337.631 348.568L280.209 280.551C304.818 259.587 325.212 244.776 341.391 236.117C357.569 227.458 375.229 220.85 394.369 216.293C413.51 211.508 434.929 209.115 458.627 209.115C489.844 209.115 517.416 214.812 541.342 226.205C565.268 237.598 583.839 253.549 597.055 274.057C610.271 294.564 616.879 318.035 616.879 344.467C616.879 367.481 612.777 389.128 604.574 409.408C596.599 429.46 584.066 450.082 566.977 471.273C550.115 492.465 520.264 522.657 477.426 561.85L413.168 622.348V627.133H630.893V716Z" fill="#9320E0"/>
<path d="M185.206 685.418C185.206 717.264 176.12 741.656 157.947 758.594C139.863 775.531 113.707 784 79.479 784H24.6968V590.542H85.4336C117.015 590.542 141.539 598.878 159.006 615.551C176.473 632.224 185.206 655.513 185.206 685.418ZM142.598 686.477C142.598 644.927 124.249 624.152 87.5508 624.152H65.7173V750.125H83.3164C122.837 750.125 142.598 728.909 142.598 686.477ZM316.075 784L308.268 763.887H307.209C300.416 772.444 293.403 778.398 286.169 781.75C279.024 785.014 269.673 786.646 258.117 786.646C243.914 786.646 232.71 782.589 224.506 774.473C216.39 766.357 212.333 754.8 212.333 739.804C212.333 724.101 217.802 712.545 228.741 705.135C239.768 697.636 256.352 693.49 278.495 692.696L304.166 691.902V685.418C304.166 670.422 296.491 662.923 281.141 662.923C269.32 662.923 255.426 666.496 239.459 673.642L226.094 646.383C243.12 637.473 261.998 633.018 282.729 633.018C302.578 633.018 317.795 637.341 328.381 645.986C338.967 654.631 344.26 667.775 344.26 685.418V784H316.075ZM304.166 715.456L288.551 715.985C276.819 716.338 268.085 718.455 262.351 722.337C256.617 726.218 253.75 732.129 253.75 740.068C253.75 751.448 260.278 757.138 273.334 757.138C282.685 757.138 290.139 754.448 295.697 749.066C301.343 743.685 304.166 736.54 304.166 727.63V715.456ZM448.267 754.492C455.324 754.492 463.793 752.948 473.673 749.86V779.898C463.616 784.397 451.266 786.646 436.622 786.646C420.479 786.646 408.702 782.589 401.292 774.473C393.97 766.269 390.309 754.007 390.309 737.687V666.364H370.989V649.294L393.22 635.797L404.864 604.568H430.667V636.062H472.085V666.364H430.667V737.687C430.667 743.421 432.255 747.655 435.431 750.39C438.695 753.124 442.974 754.492 448.267 754.492ZM564.977 661.997C556.42 661.997 549.715 664.732 544.863 670.201C540.011 675.582 537.233 683.257 536.527 693.226H593.162C592.985 683.257 590.383 675.582 585.354 670.201C580.326 664.732 573.534 661.997 564.977 661.997ZM570.667 786.646C546.848 786.646 528.235 780.074 514.826 766.93C501.417 753.786 494.712 735.172 494.712 711.089C494.712 686.301 500.888 667.158 513.238 653.661C525.676 640.075 542.834 633.283 564.712 633.283C585.619 633.283 601.895 639.237 613.54 651.146C625.184 663.056 631.006 679.508 631.006 700.503V720.087H535.601C536.042 731.556 539.438 740.509 545.79 746.949C552.141 753.389 561.051 756.609 572.519 756.609C581.429 756.609 589.854 755.683 597.793 753.83C605.732 751.978 614.025 749.022 622.67 744.964V776.193C615.613 779.722 608.07 782.324 600.042 784C592.015 785.764 582.223 786.646 570.667 786.646Z" fill="#3198FC"/>
</svg>
