<svg width="200" height="36" viewBox="0 0 200 36" fill="none" xmlns="http://www.w3.org/2000/svg">
<path d="M0 18C0 8.05888 8.05888 0 18 0H182C191.941 0 200 8.05888 200 18C200 27.9411 191.941 36 182 36H18C8.05887 36 0 27.9411 0 18Z" fill="#9320E0"/>
<path d="M0 18C0 8.05888 8.05888 0 18 0H182C191.941 0 200 8.05888 200 18C200 27.9411 191.941 36 182 36H18C8.05887 36 0 27.9411 0 18Z" fill="url(#paint0_linear)"/>
<path d="M0 18C0 8.05888 8.05888 0 18 0H182C191.941 0 200 8.05888 200 18C200 27.9411 191.941 36 182 36H18C8.05887 36 0 27.9411 0 18Z" fill="url(#paint1_linear)"/>
<path d="M51.5781 18.2817H52.875C53.7448 18.2817 54.375 18.1203 54.7656 17.7974C55.1562 17.4744 55.3516 16.9953 55.3516 16.3599C55.3516 15.714 55.1406 15.2505 54.7188 14.9692C54.2969 14.688 53.6615 14.5474 52.8125 14.5474H51.5781V18.2817ZM51.5781 19.8286V24.3911H49.7109V12.9692H52.9375C54.4115 12.9692 55.5026 13.2453 56.2109 13.7974C56.9193 14.3494 57.2734 15.1828 57.2734 16.2974C57.2734 17.7192 56.5339 18.7323 55.0547 19.3364L58.2812 24.3911H56.1562L53.4219 19.8286H51.5781ZM63.5234 24.5474C62.1797 24.5474 61.1276 24.1567 60.3672 23.3755C59.612 22.589 59.2344 21.5083 59.2344 20.1333C59.2344 18.7218 59.5859 17.6125 60.2891 16.8052C60.9922 15.9979 61.9583 15.5942 63.1875 15.5942C64.3281 15.5942 65.2292 15.9406 65.8906 16.6333C66.5521 17.326 66.8828 18.2791 66.8828 19.4927V20.4849H61.125C61.151 21.3234 61.3776 21.9692 61.8047 22.4224C62.2318 22.8703 62.8333 23.0942 63.6094 23.0942C64.1198 23.0942 64.5938 23.0474 65.0312 22.9536C65.474 22.8547 65.9479 22.6932 66.4531 22.4692V23.9614C66.0052 24.175 65.5521 24.326 65.0938 24.4146C64.6354 24.5031 64.112 24.5474 63.5234 24.5474ZM63.1875 16.9849C62.6042 16.9849 62.1354 17.1698 61.7812 17.5396C61.4323 17.9093 61.224 18.4484 61.1562 19.1567H65.0781C65.0677 18.4432 64.8958 17.9041 64.5625 17.5396C64.2292 17.1698 63.7708 16.9849 63.1875 16.9849ZM76.2656 15.7505V16.7583L74.7891 17.0317C74.9245 17.214 75.0365 17.438 75.125 17.7036C75.2135 17.9692 75.2578 18.2505 75.2578 18.5474C75.2578 19.438 74.9505 20.1385 74.3359 20.6489C73.7214 21.1593 72.875 21.4146 71.7969 21.4146C71.5208 21.4146 71.2708 21.3937 71.0469 21.3521C70.651 21.5968 70.4531 21.8833 70.4531 22.2114C70.4531 22.4093 70.5443 22.5578 70.7266 22.6567C70.9141 22.7557 71.2552 22.8052 71.75 22.8052H73.2578C74.2109 22.8052 74.9349 23.0083 75.4297 23.4146C75.9245 23.8208 76.1719 24.4067 76.1719 25.1724C76.1719 26.1515 75.7682 26.9067 74.9609 27.438C74.1536 27.9692 72.987 28.2349 71.4609 28.2349C70.2839 28.2349 69.3854 28.0265 68.7656 27.6099C68.1458 27.1932 67.8359 26.5994 67.8359 25.8286C67.8359 25.2974 68.0026 24.8494 68.3359 24.4849C68.6745 24.1255 69.1458 23.8755 69.75 23.7349C69.5052 23.6307 69.3021 23.464 69.1406 23.2349C68.9844 23.0005 68.9062 22.7557 68.9062 22.5005C68.9062 22.1776 68.9974 21.9041 69.1797 21.6802C69.362 21.4562 69.6328 21.2349 69.9922 21.0161C69.5443 20.8234 69.1797 20.5109 68.8984 20.0786C68.6224 19.6411 68.4844 19.1307 68.4844 18.5474C68.4844 17.6099 68.7786 16.8833 69.3672 16.3677C69.9609 15.8521 70.8047 15.5942 71.8984 15.5942C72.1432 15.5942 72.3984 15.6125 72.6641 15.6489C72.9349 15.6802 73.138 15.714 73.2734 15.7505H76.2656ZM69.4766 25.7349C69.4766 26.1307 69.6536 26.4354 70.0078 26.6489C70.3672 26.8625 70.8698 26.9692 71.5156 26.9692C72.5156 26.9692 73.2604 26.826 73.75 26.5396C74.2396 26.2531 74.4844 25.8729 74.4844 25.3989C74.4844 25.0239 74.349 24.7557 74.0781 24.5942C73.8125 24.438 73.3151 24.3599 72.5859 24.3599H71.1953C70.6693 24.3599 70.25 24.4823 69.9375 24.7271C69.6302 24.9771 69.4766 25.313 69.4766 25.7349ZM70.2656 18.5474C70.2656 19.089 70.4036 19.5057 70.6797 19.7974C70.9609 20.089 71.362 20.2349 71.8828 20.2349C72.9453 20.2349 73.4766 19.6672 73.4766 18.5317C73.4766 17.9692 73.3438 17.5369 73.0781 17.2349C72.8177 16.9276 72.4193 16.7739 71.8828 16.7739C71.3516 16.7739 70.9479 16.925 70.6719 17.2271C70.401 17.5291 70.2656 17.9692 70.2656 18.5474ZM79.7109 24.3911H77.875V15.7505H79.7109V24.3911ZM77.7656 13.4614C77.7656 13.1333 77.8542 12.8807 78.0312 12.7036C78.2135 12.5265 78.4714 12.438 78.8047 12.438C79.1276 12.438 79.3776 12.5265 79.5547 12.7036C79.737 12.8807 79.8281 13.1333 79.8281 13.4614C79.8281 13.7739 79.737 14.0213 79.5547 14.2036C79.3776 14.3807 79.1276 14.4692 78.8047 14.4692C78.4714 14.4692 78.2135 14.3807 78.0312 14.2036C77.8542 14.0213 77.7656 13.7739 77.7656 13.4614ZM88.1484 21.9302C88.1484 22.7739 87.8411 23.4224 87.2266 23.8755C86.612 24.3234 85.7318 24.5474 84.5859 24.5474C83.4349 24.5474 82.5104 24.3729 81.8125 24.0239V22.438C82.8281 22.9067 83.7734 23.1411 84.6484 23.1411C85.7786 23.1411 86.3438 22.8 86.3438 22.1177C86.3438 21.8989 86.2812 21.7166 86.1562 21.5708C86.0312 21.425 85.8255 21.2739 85.5391 21.1177C85.2526 20.9614 84.8542 20.7843 84.3438 20.5864C83.349 20.201 82.6745 19.8156 82.3203 19.4302C81.9714 19.0448 81.7969 18.5448 81.7969 17.9302C81.7969 17.1906 82.0938 16.6177 82.6875 16.2114C83.2865 15.8 84.099 15.5942 85.125 15.5942C86.1406 15.5942 87.1016 15.8 88.0078 16.2114L87.4141 17.5942C86.4818 17.2088 85.6979 17.0161 85.0625 17.0161C84.0938 17.0161 83.6094 17.2922 83.6094 17.8442C83.6094 18.1151 83.7344 18.3442 83.9844 18.5317C84.2396 18.7192 84.7917 18.9771 85.6406 19.3052C86.3542 19.5812 86.8724 19.8338 87.1953 20.063C87.5182 20.2922 87.7578 20.5578 87.9141 20.8599C88.0703 21.1567 88.1484 21.5135 88.1484 21.9302ZM93.3594 23.063C93.8073 23.063 94.2552 22.9927 94.7031 22.8521V24.2349C94.5 24.3234 94.237 24.3963 93.9141 24.4536C93.5964 24.5161 93.2656 24.5474 92.9219 24.5474C91.1823 24.5474 90.3125 23.6307 90.3125 21.7974V17.1411H89.1328V16.3286L90.3984 15.6567L91.0234 13.8286H92.1562V15.7505H94.6172V17.1411H92.1562V21.7661C92.1562 22.2088 92.2656 22.5369 92.4844 22.7505C92.7083 22.9588 93 23.063 93.3594 23.063ZM100.211 24.5474C98.8672 24.5474 97.8151 24.1567 97.0547 23.3755C96.2995 22.589 95.9219 21.5083 95.9219 20.1333C95.9219 18.7218 96.2734 17.6125 96.9766 16.8052C97.6797 15.9979 98.6458 15.5942 99.875 15.5942C101.016 15.5942 101.917 15.9406 102.578 16.6333C103.24 17.326 103.57 18.2791 103.57 19.4927V20.4849H97.8125C97.8385 21.3234 98.0651 21.9692 98.4922 22.4224C98.9193 22.8703 99.5208 23.0942 100.297 23.0942C100.807 23.0942 101.281 23.0474 101.719 22.9536C102.161 22.8547 102.635 22.6932 103.141 22.4692V23.9614C102.693 24.175 102.24 24.326 101.781 24.4146C101.323 24.5031 100.799 24.5474 100.211 24.5474ZM99.875 16.9849C99.2917 16.9849 98.8229 17.1698 98.4688 17.5396C98.1198 17.9093 97.9115 18.4484 97.8438 19.1567H101.766C101.755 18.4432 101.583 17.9041 101.25 17.5396C100.917 17.1698 100.458 16.9849 99.875 16.9849ZM110.039 15.5942C110.409 15.5942 110.714 15.6203 110.953 15.6724L110.773 17.3833C110.513 17.3208 110.242 17.2896 109.961 17.2896C109.227 17.2896 108.63 17.5291 108.172 18.0083C107.719 18.4875 107.492 19.1099 107.492 19.8755V24.3911H105.656V15.7505H107.094L107.336 17.2739H107.43C107.716 16.7583 108.089 16.3494 108.547 16.0474C109.01 15.7453 109.508 15.5942 110.039 15.5942ZM126.43 24.3911H124.141L118.523 15.2896H118.461L118.5 15.7974C118.573 16.7661 118.609 17.6515 118.609 18.4536V24.3911H116.914V12.9692H119.18L124.781 22.0239H124.828C124.818 21.9041 124.797 21.4692 124.766 20.7192C124.734 19.964 124.719 19.3755 124.719 18.9536V12.9692H126.43V24.3911ZM136.914 20.0552C136.914 21.4666 136.552 22.5682 135.828 23.3599C135.104 24.1515 134.096 24.5474 132.805 24.5474C131.997 24.5474 131.284 24.3651 130.664 24.0005C130.044 23.6359 129.568 23.1125 129.234 22.4302C128.901 21.7479 128.734 20.9562 128.734 20.0552C128.734 18.6541 129.094 17.5604 129.812 16.7739C130.531 15.9875 131.544 15.5942 132.852 15.5942C134.102 15.5942 135.091 15.9979 135.82 16.8052C136.549 17.6073 136.914 18.6906 136.914 20.0552ZM130.625 20.0552C130.625 22.05 131.362 23.0474 132.836 23.0474C134.294 23.0474 135.023 22.05 135.023 20.0552C135.023 18.0812 134.289 17.0942 132.82 17.0942C132.049 17.0942 131.49 17.3494 131.141 17.8599C130.797 18.3703 130.625 19.1021 130.625 20.0552ZM146.117 24.3911L145 20.3599C144.865 19.9328 144.62 18.9406 144.266 17.3833H144.195C143.893 18.7896 143.654 19.7869 143.477 20.3755L142.328 24.3911H140.297L137.875 15.7505H139.75L140.852 20.0083C141.102 21.0604 141.279 21.9614 141.383 22.7114H141.43C141.482 22.3312 141.56 21.8963 141.664 21.4067C141.773 20.9119 141.867 20.5422 141.945 20.2974L143.258 15.7505H145.273L146.547 20.2974C146.625 20.5526 146.721 20.9432 146.836 21.4692C146.956 21.9953 147.026 22.4041 147.047 22.6958H147.109C147.188 22.0552 147.37 21.1593 147.656 20.0083L148.773 15.7505H150.617L148.18 24.3911H146.117Z" fill="white"/>
<defs>
<linearGradient id="paint0_linear" x1="0" y1="18.1374" x2="100.258" y2="18.1374" gradientUnits="userSpaceOnUse">
<stop stop-color="#3198FC"/>
<stop offset="1" stop-color="#3198FC" stop-opacity="0"/>
</linearGradient>
<linearGradient id="paint1_linear" x1="200" y1="18.1374" x2="100.258" y2="18.1374" gradientUnits="userSpaceOnUse">
<stop stop-color="#ED105B"/>
<stop offset="1" stop-color="#ED105B" stop-opacity="0"/>
</linearGradient>
</defs>
</svg>
