<svg width="22" height="22" viewBox="0 0 22 22" fill="none" xmlns="http://www.w3.org/2000/svg">
<path d="M22 19.25C22 19.9793 21.7103 20.6788 21.1945 21.1945C20.6788 21.7103 19.9793 22 19.25 22H2.75C2.02065 22 1.32118 21.7103 0.805456 21.1945C0.289731 20.6788 0 19.9793 0 19.25V2.75C0 2.02065 0.289731 1.32118 0.805456 0.805456C1.32118 0.289731 2.02065 0 2.75 0L19.25 0C19.9793 0 20.6788 0.289731 21.1945 0.805456C21.7103 1.32118 22 2.02065 22 2.75V19.25ZM15.8125 10.3125H7.84712L10.7992 7.36175C10.9283 7.23266 11.0009 7.05757 11.0009 6.875C11.0009 6.69243 10.9283 6.51734 10.7992 6.38825C10.6702 6.25916 10.4951 6.18663 10.3125 6.18663C10.1299 6.18663 9.95484 6.25916 9.82575 6.38825L5.70075 10.5133C5.63673 10.5771 5.58593 10.653 5.55127 10.7365C5.51661 10.82 5.49877 10.9096 5.49877 11C5.49877 11.0904 5.51661 11.18 5.55127 11.2635C5.58593 11.347 5.63673 11.4229 5.70075 11.4867L9.82575 15.6117C9.95484 15.7408 10.1299 15.8134 10.3125 15.8134C10.4951 15.8134 10.6702 15.7408 10.7992 15.6117C10.9283 15.4827 11.0009 15.3076 11.0009 15.125C11.0009 14.9424 10.9283 14.7673 10.7992 14.6383L7.84712 11.6875H15.8125C15.9948 11.6875 16.1697 11.6151 16.2986 11.4861C16.4276 11.3572 16.5 11.1823 16.5 11C16.5 10.8177 16.4276 10.6428 16.2986 10.5139C16.1697 10.3849 15.9948 10.3125 15.8125 10.3125Z" fill="#9320E0"/>
<path d="M22 19.25C22 19.9793 21.7103 20.6788 21.1945 21.1945C20.6788 21.7103 19.9793 22 19.25 22H2.75C2.02065 22 1.32118 21.7103 0.805456 21.1945C0.289731 20.6788 0 19.9793 0 19.25V2.75C0 2.02065 0.289731 1.32118 0.805456 0.805456C1.32118 0.289731 2.02065 0 2.75 0L19.25 0C19.9793 0 20.6788 0.289731 21.1945 0.805456C21.7103 1.32118 22 2.02065 22 2.75V19.25ZM15.8125 10.3125H7.84712L10.7992 7.36175C10.9283 7.23266 11.0009 7.05757 11.0009 6.875C11.0009 6.69243 10.9283 6.51734 10.7992 6.38825C10.6702 6.25916 10.4951 6.18663 10.3125 6.18663C10.1299 6.18663 9.95484 6.25916 9.82575 6.38825L5.70075 10.5133C5.63673 10.5771 5.58593 10.653 5.55127 10.7365C5.51661 10.82 5.49877 10.9096 5.49877 11C5.49877 11.0904 5.51661 11.18 5.55127 11.2635C5.58593 11.347 5.63673 11.4229 5.70075 11.4867L9.82575 15.6117C9.95484 15.7408 10.1299 15.8134 10.3125 15.8134C10.4951 15.8134 10.6702 15.7408 10.7992 15.6117C10.9283 15.4827 11.0009 15.3076 11.0009 15.125C11.0009 14.9424 10.9283 14.7673 10.7992 14.6383L7.84712 11.6875H15.8125C15.9948 11.6875 16.1697 11.6151 16.2986 11.4861C16.4276 11.3572 16.5 11.1823 16.5 11C16.5 10.8177 16.4276 10.6428 16.2986 10.5139C16.1697 10.3849 15.9948 10.3125 15.8125 10.3125Z" fill="url(#paint0_linear)"/>
<path d="M22 19.25C22 19.9793 21.7103 20.6788 21.1945 21.1945C20.6788 21.7103 19.9793 22 19.25 22H2.75C2.02065 22 1.32118 21.7103 0.805456 21.1945C0.289731 20.6788 0 19.9793 0 19.25V2.75C0 2.02065 0.289731 1.32118 0.805456 0.805456C1.32118 0.289731 2.02065 0 2.75 0L19.25 0C19.9793 0 20.6788 0.289731 21.1945 0.805456C21.7103 1.32118 22 2.02065 22 2.75V19.25ZM15.8125 10.3125H7.84712L10.7992 7.36175C10.9283 7.23266 11.0009 7.05757 11.0009 6.875C11.0009 6.69243 10.9283 6.51734 10.7992 6.38825C10.6702 6.25916 10.4951 6.18663 10.3125 6.18663C10.1299 6.18663 9.95484 6.25916 9.82575 6.38825L5.70075 10.5133C5.63673 10.5771 5.58593 10.653 5.55127 10.7365C5.51661 10.82 5.49877 10.9096 5.49877 11C5.49877 11.0904 5.51661 11.18 5.55127 11.2635C5.58593 11.347 5.63673 11.4229 5.70075 11.4867L9.82575 15.6117C9.95484 15.7408 10.1299 15.8134 10.3125 15.8134C10.4951 15.8134 10.6702 15.7408 10.7992 15.6117C10.9283 15.4827 11.0009 15.3076 11.0009 15.125C11.0009 14.9424 10.9283 14.7673 10.7992 14.6383L7.84712 11.6875H15.8125C15.9948 11.6875 16.1697 11.6151 16.2986 11.4861C16.4276 11.3572 16.5 11.1823 16.5 11C16.5 10.8177 16.4276 10.6428 16.2986 10.5139C16.1697 10.3849 15.9948 10.3125 15.8125 10.3125Z" fill="url(#paint1_linear)"/>
<defs>
<linearGradient id="paint0_linear" x1="0" y1="11.084" x2="11.0284" y2="11.084" gradientUnits="userSpaceOnUse">
<stop stop-color="#3198FC"/>
<stop offset="1" stop-color="#3198FC" stop-opacity="0"/>
</linearGradient>
<linearGradient id="paint1_linear" x1="22" y1="11.084" x2="11.0284" y2="11.084" gradientUnits="userSpaceOnUse">
<stop stop-color="#ED105B"/>
<stop offset="1" stop-color="#ED105B" stop-opacity="0"/>
</linearGradient>
</defs>
</svg>
