<svg width="2548" height="412" viewBox="0 0 2548 412" fill="none" xmlns="http://www.w3.org/2000/svg">
<path d="M1546.77 201.176C1546.77 266.697 1528.07 316.881 1490.69 351.729C1453.48 386.576 1399.66 404 1329.24 404H1216.53V5.97559H1341.49C1406.47 5.97559 1456.93 23.1271 1492.86 57.4302C1528.8 91.7333 1546.77 139.649 1546.77 201.176ZM1459.11 203.354C1459.11 117.869 1421.35 75.1262 1345.85 75.1262H1300.93V334.305H1337.14C1418.45 334.305 1459.11 290.655 1459.11 203.354Z" fill="#3198FC"/>
<path d="M1843.9 404L1827.84 362.619H1825.66C1811.68 380.224 1797.25 392.475 1782.37 399.372C1767.67 406.087 1748.43 409.445 1724.65 409.445C1695.43 409.445 1672.38 401.096 1655.5 384.398C1638.81 367.701 1630.46 343.924 1630.46 313.07C1630.46 280.763 1641.71 256.987 1664.22 241.741C1686.9 226.314 1721.02 217.783 1766.58 216.15L1819.4 214.516V201.176C1819.4 170.322 1803.61 154.894 1772.03 154.894C1747.7 154.894 1719.12 162.245 1686.27 176.946L1658.77 120.864C1693.8 102.532 1732.64 93.3667 1775.29 93.3667C1816.13 93.3667 1847.44 102.26 1869.22 120.047C1891 137.834 1901.89 164.877 1901.89 201.176V404H1843.9ZM1819.4 262.976L1787.27 264.065C1763.13 264.791 1745.16 269.147 1733.37 277.133C1721.57 285.119 1715.67 297.279 1715.67 313.614C1715.67 337.027 1729.1 348.734 1755.96 348.734C1775.2 348.734 1790.54 343.198 1801.97 332.127C1813.59 321.056 1819.4 306.354 1819.4 288.023V262.976Z" fill="#3198FC"/>
<path d="M2143.75 343.289C2158.27 343.289 2175.69 340.113 2196.02 333.76V395.56C2175.33 404.817 2149.92 409.445 2119.79 409.445C2086.58 409.445 2062.35 401.096 2047.1 384.398C2032.04 367.519 2024.51 342.291 2024.51 308.714V161.973H1984.76V126.853L2030.5 99.0839L2054.45 34.8337H2107.54V99.6284H2192.76V161.973H2107.54V308.714C2107.54 320.511 2110.81 329.223 2117.34 334.849C2124.06 340.476 2132.86 343.289 2143.75 343.289Z" fill="#3198FC"/>
<path d="M2411.75 152.989C2394.15 152.989 2380.35 158.615 2370.37 169.868C2360.39 180.939 2354.67 196.73 2353.22 217.239H2469.74C2469.38 196.73 2464.02 180.939 2453.68 169.868C2443.33 158.615 2429.36 152.989 2411.75 152.989ZM2423.46 409.445C2374.45 409.445 2336.16 395.923 2308.57 368.88C2280.98 341.837 2267.19 303.541 2267.19 253.992C2267.19 202.991 2279.89 163.606 2305.3 135.837C2330.89 107.887 2366.19 93.9112 2411.21 93.9112C2454.22 93.9112 2487.71 106.162 2511.67 130.665C2535.62 155.167 2547.6 189.016 2547.6 232.212V272.505H2351.31C2352.22 296.1 2359.21 314.522 2372.27 327.771C2385.34 341.02 2403.67 347.645 2427.27 347.645C2445.6 347.645 2462.93 345.739 2479.27 341.928C2495.6 338.116 2512.66 332.036 2530.45 323.687V387.938C2515.93 395.197 2500.41 400.552 2483.9 404C2467.38 407.63 2447.23 409.445 2423.46 409.445Z" fill="#3198FC"/>
<path d="M197.621 404H113.497V173.679L114.314 135.837L115.675 94.4557C101.7 108.431 91.9898 117.597 86.5448 121.953L40.8074 158.706L0.242676 108.068L128.471 5.97559H197.621V404Z" fill="#ED105B"/>
<path d="M345.56 365.069C345.56 349.823 349.644 338.298 357.811 330.493C365.979 322.689 377.867 318.787 393.476 318.787C408.54 318.787 420.156 322.78 428.323 330.766C436.672 338.752 440.847 350.186 440.847 365.069C440.847 379.407 436.672 390.751 428.323 399.1C419.974 407.267 408.358 411.351 393.476 411.351C378.23 411.351 366.432 407.358 358.084 399.372C349.735 391.204 345.56 379.77 345.56 365.069Z" fill="#ED105B"/>
<path d="M773.926 404H495.69V345.467L595.605 244.463C625.189 214.153 644.518 193.19 653.593 181.575C662.668 169.777 669.202 158.887 673.195 148.905C677.188 138.923 679.184 128.577 679.184 117.869C679.184 101.897 674.738 90.0089 665.844 82.2045C657.132 74.4001 645.426 70.4979 630.724 70.4979C615.297 70.4979 600.323 74.0371 585.804 81.1155C571.284 88.1939 556.129 98.2671 540.338 111.335L494.601 57.1578C514.203 40.46 530.447 28.6627 543.333 21.7658C556.22 14.8689 570.286 9.60543 585.531 5.97548C600.777 2.16403 617.838 0.258301 636.714 0.258301C661.579 0.258301 683.54 4.79574 702.597 13.8706C721.655 22.9455 736.447 35.6504 746.974 51.9851C757.501 68.3199 762.764 87.0142 762.764 108.068C762.764 126.399 759.497 143.641 752.963 159.795C746.611 175.767 736.628 192.192 723.016 209.071C709.585 225.951 685.809 249.999 651.687 281.217L600.505 329.404V333.216H773.926V404Z" fill="#9320E0"/>
<path d="M851.625 365.069C851.625 349.823 855.709 338.298 863.876 330.493C872.044 322.689 883.932 318.787 899.541 318.787C914.605 318.787 926.221 322.78 934.388 330.766C942.737 338.752 946.912 350.186 946.912 365.069C946.912 379.407 942.737 390.751 934.388 399.1C926.039 407.267 914.423 411.351 899.541 411.351C884.295 411.351 872.497 407.358 864.149 399.372C855.8 391.204 851.625 379.77 851.625 365.069Z" fill="#9320E0"/>
<path d="M1038.5 365.069C1038.5 349.823 1042.58 338.298 1050.75 330.493C1058.91 322.689 1070.8 318.787 1086.41 318.787C1101.47 318.787 1113.09 322.78 1121.26 330.766C1129.61 338.752 1133.78 350.186 1133.78 365.069C1133.78 379.407 1129.61 390.751 1121.26 399.1C1112.91 407.267 1101.29 411.351 1086.41 411.351C1071.16 411.351 1059.37 407.358 1051.02 399.372C1042.67 391.204 1038.5 379.77 1038.5 365.069Z" fill="#9320E0"/>
</svg>
